External Loads File
version=1
nRows=39
nColumns=13
Range=5.000000e-03-10 seconds
endheader
time 	forceRightX 	forceRightY 	forceRightZ 	pointRightX 	pointRightY 	pointRightZ 	forceLeftX 	forceLeftY 	forceLeftZ 	pointLeftX 	pointLeftY 	pointLeftZ 		
7.505000 83.156886 73.980588 -0.000000 0.128634 0.394632 -0.148951 -47.639131 136.378026 -0.000000 0.396447 0.265017 -0.381396
7.510000 82.757688 70.695552 -0.000000 0.130791 0.401603 -0.149097 -46.238906 139.996025 -0.000000 0.393533 0.258247 -0.381247
7.515000 82.578284 67.565155 -0.000000 0.133177 0.408453 -0.149351 -44.741724 143.921384 -0.000000 0.390362 0.251648 -0.381143
7.520000 82.660413 64.529784 -0.000000 0.135698 0.415194 -0.149609 -43.044370 148.155067 -0.000000 0.386923 0.245148 -0.380991
7.525000 82.959024 61.589325 -0.000000 0.138380 0.421808 -0.149891 -41.083360 152.632415 -0.000000 0.383297 0.238785 -0.380854
7.530000 83.404666 58.760965 -0.000000 0.141240 0.428235 -0.150099 -38.740849 157.257241 -0.000000 0.379439 0.232522 -0.380704
7.535000 83.938604 56.065555 -0.000000 0.144366 0.434708 -0.150259 -35.899011 161.939279 -0.000000 0.375332 0.226531 -0.380565
7.540000 84.438010 53.657391 -0.000000 0.147585 0.440831 -0.150415 -32.766780 166.572666 -0.000000 0.371045 0.220717 -0.380420
7.545000 84.938105 51.472479 -0.000000 0.151132 0.446835 -0.150484 -29.186380 171.177350 -0.000000 0.366532 0.215057 -0.380263
7.550000 85.403580 49.543919 -0.000000 0.155180 0.452622 -0.150238 -25.198228 175.746627 -0.000000 0.361812 0.209654 -0.380255
7.555000 85.626190 48.199803 -0.000000 0.158653 0.457731 -0.150905 -21.442461 180.219630 -0.000000 0.356898 0.204514 -0.380242
7.560000 85.805678 47.045930 -0.000000 0.163153 0.463043 -0.150432 -17.046195 184.745694 -0.000000 0.351856 0.199679 -0.380210
7.565000 85.623539 46.600812 -0.000000 0.167117 0.467428 -0.150849 -13.122473 189.261945 -0.000000 0.346674 0.195083 -0.380214
7.570000 85.205130 46.563118 -0.000000 0.171383 0.471874 -0.151336 -9.140309 193.908797 -0.000000 0.341421 0.190802 -0.380217
7.575000 84.467960 46.973734 -0.000000 0.175992 0.475851 -0.151275 -5.411180 198.774429 -0.000000 0.336189 0.186866 -0.380116
7.580000 83.367478 47.765420 -0.000000 0.180478 0.479510 -0.151310 -2.150446 203.982994 -0.000000 0.330931 0.183187 -0.380062
7.585000 81.919737 48.736745 -0.000000 0.185058 0.482883 -0.151333 0.653468 209.642456 -0.000000 0.325708 0.179843 -0.379981
7.590000 80.152997 49.664236 -0.000000 0.189707 0.485941 -0.151366 3.132216 215.763946 -0.000000 0.320323 0.176768 -0.379673
7.595000 77.998398 50.489879 -0.000000 0.194359 0.488782 -0.151430 5.115187 222.263955 -0.000000 0.315165 0.173925 -0.379585
7.600000 75.445255 51.089472 -0.000000 0.199009 0.491360 -0.151449 6.742329 229.010011 -0.000000 0.310088 0.171314 -0.379540
7.605000 72.511588 51.387755 -0.000000 0.203690 0.494108 -0.151553 8.223321 235.834022 -0.000000 0.305046 0.168967 -0.379480
7.610000 69.198053 51.456070 -0.000000 0.208576 0.496029 -0.151629 9.495782 242.554721 -0.000000 0.300104 0.166876 -0.379395
7.615000 65.540942 51.407254 -0.000000 0.213078 0.497764 -0.151718 10.421822 249.024421 -0.000000 0.295208 0.165007 -0.379305
7.620000 61.698108 51.248434 -0.000000 0.217481 0.499988 -0.151901 11.344650 255.126910 -0.000000 0.290412 0.163268 -0.379243
7.625000 57.736633 51.117762 -0.000000 0.221933 0.501478 -0.151967 12.217219 260.794912 -0.000000 0.285690 0.161744 -0.379193
7.630000 53.739102 51.102428 -0.000000 0.226407 0.502731 -0.152029 13.158052 265.981346 -0.000000 0.281080 0.160432 -0.379163
7.635000 49.736720 51.295911 -0.000000 0.230752 0.503956 -0.152152 14.144023 270.641970 -0.000000 0.276585 0.159363 -0.379063
7.640000 45.720762 51.781085 -0.000000 0.234992 0.505042 -0.152211 15.059483 274.690092 -0.000000 0.272433 0.158381 -0.379227
7.645000 41.749532 52.549212 -0.000000 0.239104 0.505917 -0.152278 16.203987 277.992430 -0.000000 0.268215 0.157659 -0.379183
7.650000 37.791609 53.665033 -0.000000 0.243069 0.506648 -0.152380 17.354731 280.469152 -0.000000 0.264181 0.157064 -0.379123
7.655000 33.880088 55.148234 -0.000000 0.246886 0.507272 -0.152445 18.469397 282.078118 -0.000000 0.260309 0.156523 -0.379040
7.660000 30.060282 57.026054 -0.000000 0.250537 0.507656 -0.152454 19.384875 282.844391 -0.000000 0.256700 0.156160 -0.378984
7.665000 26.427437 59.303207 -0.000000 0.253932 0.507996 -0.152513 20.084717 282.810044 -0.000000 0.253264 0.155956 -0.378932
7.670000 23.071310 61.969247 -0.000000 0.257109 0.508248 -0.152528 20.509086 281.994645 -0.000000 0.250103 0.155859 -0.378858
7.675000 20.124557 64.957953 -0.000000 0.260267 0.508388 -0.152685 20.852557 280.390828 -0.000000 0.247186 0.155807 -0.378834
7.680000 17.544135 68.226942 -0.000000 0.262910 0.508427 -0.152647 20.669239 278.054406 -0.000000 0.244590 0.155861 -0.378765
7.685000 15.387230 71.683467 -0.000000 0.265158 0.508371 -0.152578 20.129343 275.001670 -0.000000 0.242270 0.155965 -0.378774
7.690000 13.680587 75.247207 -0.000000 0.267159 0.508360 -0.152536 19.384331 271.291093 -0.000000 0.240237 0.156113 -0.378758
7.695000 12.400380 78.848078 -0.000000 0.268951 0.508318 -0.152547 18.492201 267.057346 -0.000000 0.238529 0.156288 -0.378682
